<svg width="50" height="50" viewBox="0 0 50 50" fill="none" xmlns="http://www.w3.org/2000/svg">
<g clip-path="url(#clip0_9:2063)">
<path d="M11.6667 34.1667C10.286 34.1667 9.1667 35.286 9.1667 36.6667C9.1667 38.0474 10.2859 39.1667 11.6667 39.1667C13.0475 39.1667 14.1667 38.0475 14.1667 36.6667C14.1651 35.2866 13.0468 34.1682 11.6667 34.1667ZM11.6667 37.5C11.2064 37.5 10.8334 37.1269 10.8334 36.6667C10.8334 36.2064 11.2064 35.8334 11.6667 35.8334C12.127 35.8334 12.5 36.2064 12.5 36.6667C12.4995 37.1267 12.1268 37.4995 11.6667 37.5Z" fill="#1F56D5"/>
<path d="M38.3333 34.1667C36.9526 34.1667 35.8333 35.286 35.8333 36.6667C35.8333 38.0474 36.9526 39.1667 38.3333 39.1667C39.714 39.1667 40.8333 38.0475 40.8333 36.6667C40.8318 35.2866 39.7134 34.1682 38.3333 34.1667ZM38.3333 37.5C37.873 37.5 37.5 37.1269 37.5 36.6667C37.5 36.2064 37.8731 35.8334 38.3333 35.8334C38.7936 35.8334 39.1666 36.2064 39.1666 36.6667C39.1662 37.1267 38.7934 37.4995 38.3333 37.5Z" fill="#1F56D5"/>
<path d="M49.3648 22.3047L43.6243 15.8398C43.1487 15.3043 42.4663 14.9985 41.7501 15H34.1667V10C34.1652 8.61992 33.0468 7.50146 31.6667 7.5H2.5C1.11992 7.50146 0.00146493 8.61992 8.13835e-08 10V31.6667C-9.75749e-05 31.8877 0.0876954 32.0997 0.244043 32.2561C0.400293 32.4123 0.612305 32.5001 0.833399 32.5001H1.6667V35.0001C1.66816 36.3802 2.78662 37.4986 4.1667 37.5001H5.8999C6.31064 40.3692 8.76826 42.5001 11.6667 42.5001C14.5651 42.5001 17.0228 40.3692 17.4335 37.5001H32.5667C32.9774 40.3692 35.4351 42.5001 38.3335 42.5001C41.2319 42.5001 43.6896 40.3692 44.1003 37.5001H47.5C48.8801 37.4986 49.9985 36.3802 50 35.0001V23.9665C49.9994 23.3533 49.7733 22.7619 49.3648 22.3047ZM1.6667 30.8333V10C1.66719 9.53994 2.03994 9.16709 2.5 9.1667H31.6667C32.1268 9.16719 32.4996 9.53994 32.5 10V30.8333H1.6667ZM5.8999 35.8333H4.1667C3.70664 35.8328 3.33379 35.4601 3.3334 35V32.5H7.59219C6.67676 33.3947 6.08193 34.5663 5.8999 35.8333ZM11.6667 40.8333C9.36553 40.8333 7.5 38.9678 7.5 36.6666C7.5 34.3654 9.36553 32.5 11.6667 32.5C13.9679 32.5 15.8334 34.3655 15.8334 36.6667C15.8307 38.9667 13.9667 40.8307 11.6667 40.8333ZM20 35.8333H17.4334C17.2514 34.5663 16.6566 33.3946 15.7412 32.5H20V35.8333ZM27.5 35.8333H21.6667V32.5H27.5V35.8333ZM32.5666 35.8333H29.1667V32.5H34.2588C33.3434 33.3947 32.7486 34.5663 32.5666 35.8333ZM38.3333 40.8333C36.0321 40.8333 34.1666 38.9678 34.1666 36.6666C34.1666 34.3654 36.032 32.4999 38.3333 32.4999C40.6345 32.4999 42.5 34.3654 42.5 36.6666C42.4973 38.9667 40.6334 40.8307 38.3333 40.8333ZM48.3333 35C48.3328 35.4601 47.9601 35.8329 47.5 35.8333H44.1001C43.6846 32.9668 41.2299 30.8385 38.3333 30.8333H34.1666V16.6667H37.5V25C37.5015 26.3801 38.6199 27.4985 40 27.5H48.3333V35ZM48.3333 25.8333H40C39.5399 25.8328 39.1671 25.4601 39.1667 25V16.6667H41.7501C41.9894 16.6653 42.2177 16.7667 42.3771 16.945L48.1197 23.4123C48.2564 23.5646 48.3324 23.7618 48.3334 23.9665V25.8333H48.3333Z" fill="#1F56D5"/>
</g>
<defs>
<clipPath id="clip0_9:2063">
<rect width="50" height="50" fill="white"/>
</clipPath>
</defs>
</svg>
