<svg width="50" height="50" viewBox="0 0 50 50" fill="none" xmlns="http://www.w3.org/2000/svg">
<g clip-path="url(#clip0_817:337)">
<path d="M28.125 45.4103C28.6643 45.4103 29.1016 44.9731 29.1016 44.4337C29.1016 43.8944 28.6643 43.4572 28.125 43.4572C27.5857 43.4572 27.1484 43.8944 27.1484 44.4337C27.1484 44.9731 27.5857 45.4103 28.125 45.4103Z" fill="#1F56D5"/>
<path d="M17.6758 50C20.2873 50 22.8785 49.3154 25.1693 48.0202C25.6389 47.7548 25.8042 47.159 25.5388 46.6895C25.2732 46.2198 24.6772 46.0547 24.208 46.32C22.21 47.4497 19.9512 48.0469 17.6758 48.0469C10.2648 48.0469 4.00391 41.6518 4.00391 34.082C4.00391 30.7324 5.2127 27.0332 7.32041 23.9328C11.0833 18.3971 14.5619 11.5979 17.6767 3.69551C19.7035 8.82051 22.6397 15.3626 26.38 21.3878C19.4187 21.4337 13.7695 27.1103 13.7695 34.082C13.7695 34.6214 14.2068 35.0586 14.7461 35.0586C15.2854 35.0586 15.7227 34.6214 15.7227 34.082C15.7227 28.1588 20.5416 23.3398 26.4648 23.3398C26.8408 23.3398 27.2164 23.3158 27.5884 23.273C28.9857 25.3783 30.1015 27.2049 30.8421 30.1758H29.3945C25.6251 30.1758 22.5586 33.2424 22.5586 37.0117C22.5586 37.5511 22.9959 37.9883 23.5352 37.9883C24.0744 37.9883 24.5117 37.5511 24.5117 37.0117C24.5117 34.3193 26.7022 32.1289 29.3945 32.1289H31.2162C31.303 32.7894 31.3477 33.4436 31.3477 34.082C31.3477 36.2701 30.8203 38.4642 29.8225 40.4269C29.578 40.9076 29.7696 41.4955 30.2505 41.7399C30.7312 41.9845 31.3191 41.7929 31.5635 41.312C32.7001 39.0764 33.3008 36.5763 33.3008 34.082C33.3008 33.4314 33.2603 32.7678 33.1811 32.0993C39.7832 31.6571 45.0195 26.1458 45.0195 19.4336V18.8615L46.2821 20.1241C46.6636 20.5055 47.2817 20.5055 47.6633 20.1241C48.0446 19.7428 48.0446 19.1244 47.6633 18.743L44.7336 15.8133C44.3521 15.4319 43.734 15.4319 43.3524 15.8133L40.4228 18.743C40.0414 19.1243 40.0414 19.7427 40.4228 20.1241C40.8042 20.5055 41.4224 20.5055 41.8039 20.1241L43.0664 18.8615V19.4336C43.0664 25.182 38.5277 29.8899 32.8458 30.1629C32.2705 27.5999 31.1736 25.0811 29.6449 22.8324C29.6405 22.8259 29.6363 22.8197 29.6319 22.8132C33.5279 21.484 36.2305 17.8017 36.2305 13.5742V7.14277L37.4931 8.40537C37.8745 8.78672 38.4927 8.78672 38.8742 8.40537C39.2556 8.02402 39.2556 7.40566 38.8742 7.02422L35.9445 4.09453C35.5631 3.71318 34.9449 3.71318 34.5634 4.09453L31.6337 7.02422C31.2523 7.40557 31.2523 8.02393 31.6337 8.40537C32.0151 8.78672 32.6333 8.78672 33.0148 8.40537L34.2773 7.14277V13.5742C34.2773 17.1292 31.8899 20.2027 28.5149 21.1141C24.0225 14.0654 20.6552 6.13936 18.6007 0.661133C18.5931 0.651367 18.3904 0.00380859 17.681 0C17.6792 0 17.6775 0 17.6757 0C17.2749 0 16.9146 0.24502 16.7673 0.618262C16.2462 1.82256 12.3679 13.0329 5.70518 22.8348C3.38281 26.2511 2.05078 30.3505 2.05078 34.082C2.05078 42.7302 9.04746 50 17.6758 50Z" fill="#1F56D5"/>
</g>
<defs>
<clipPath id="clip0_817:337">
<rect width="50" height="50" fill="white"/>
</clipPath>
</defs>
</svg>
