<svg width="50" height="50" viewBox="0 0 50 50" fill="none" xmlns="http://www.w3.org/2000/svg">
<path d="M47.4715 48.9518L41.0775 24.9752C41.8921 24.8543 42.4963 24.1569 42.5 23.3333V20C42.5 19.0796 41.7537 18.3333 40.8333 18.3333H30V15.8333C30 15.3731 29.6269 15 29.1667 15H28.3333V0.833333C28.3333 0.373128 27.9602 0 27.5 0H22.5C22.0398 0 21.6667 0.373128 21.6667 0.833333V15H20.8333C20.3731 15 20 15.3731 20 15.8333V18.3333H9.16666C8.24625 18.3333 7.5 19.0796 7.5 20V23.3333C7.50325 24.1569 8.10791 24.8543 8.92252 24.9752L2.52807 48.9518C2.46134 49.2017 2.51465 49.469 2.67252 49.6741C2.82999 49.8796 3.07413 50 3.33333 50H6.66666C7.00765 50 7.31404 49.7925 7.44059 49.4759L8.33333 47.2432L9.22566 49.4759C9.35221 49.7925 9.65901 50 10 50H13.3333C13.6743 50 13.9807 49.7925 14.1073 49.4759L15 47.2432L15.8923 49.4759C16.0189 49.7925 16.3257 50 16.6667 50H20C20.341 50 20.6474 49.7925 20.7739 49.4759L21.6667 47.2432L22.559 49.4759C22.6855 49.7925 22.9923 50 23.3333 50H26.6667C27.0076 50 27.314 49.7925 27.4406 49.4759L28.3333 47.2432L29.2257 49.4759C29.3522 49.7925 29.659 50 30 50H33.3333C33.6743 50 33.9807 49.7925 34.1073 49.4759L35 47.2432L35.8923 49.4759C36.0189 49.7925 36.3257 50 36.6667 50H40C40.341 50 40.6474 49.7925 40.7739 49.4759L41.6667 47.2432L42.559 49.4759C42.6855 49.7925 42.9923 50 43.3333 50H46.6667C46.9255 50 47.1696 49.8796 47.3275 49.6741C47.4849 49.469 47.5382 49.2017 47.4715 48.9518ZM23.3333 1.66667H26.6667V15H23.3333V1.66667ZM21.6667 16.6667H28.3333V18.3333H21.6667V16.6667ZM9.16666 20H40.8333V23.3333H9.16666V20ZM43.8973 48.3333L42.4597 44.74L40.8081 38.1315C40.6885 37.6949 40.2421 37.4341 39.8027 37.5435C39.3636 37.653 39.0922 38.0933 39.1915 38.5352L40.793 44.9402L39.4356 48.3333H37.2306L35.8142 44.7892L34.9939 38.23C34.9272 37.7824 34.5154 37.4699 34.0666 37.526C33.6173 37.5822 33.2951 37.9862 33.3407 38.4367L34.1475 44.8901L32.769 48.3333H30.564L29.1667 44.8393V38.3333C29.1667 37.8731 28.7935 37.5 28.3333 37.5C27.8731 37.5 27.5 37.8731 27.5 38.3333V44.8393L26.1023 48.3333H23.8973L22.5 44.8393V38.3333C22.5 37.8731 22.1269 37.5 21.6667 37.5C21.2065 37.5 20.8333 37.8731 20.8333 38.3333V44.8393L19.4356 48.3333H17.2306L15.8533 44.8901L16.6597 38.4367C16.7053 37.9862 16.3831 37.5822 15.9342 37.526C15.485 37.4699 15.0732 37.7824 15.0065 38.23L14.1866 44.7892L12.769 48.3333H10.564L9.20654 44.9402L10.8081 38.5352C10.8883 38.2434 10.804 37.9313 10.588 37.7197C10.3723 37.5081 10.0586 37.4296 9.76888 37.5155C9.47876 37.6009 9.25781 37.8369 9.19148 38.1315L7.53987 44.74L6.10229 48.3333H4.4165L10.6392 25H39.3591L45.5831 48.3333H43.8973Z" fill="#1F56D5"/>
</svg>
