<svg width="50" height="50" viewBox="0 0 50 50" fill="none" xmlns="http://www.w3.org/2000/svg">
<path d="M43.5432 0C41.9812 0.00277219 40.4731 0.5698 39.2981 1.59609C38.1231 2.62239 37.3609 4.03842 37.1526 5.582H4.00917C3.77643 5.582 3.55322 5.67419 3.38864 5.83828C3.22407 6.00238 3.13161 6.22494 3.13161 6.457V9.45H0.877554C0.644812 9.45 0.421603 9.54219 0.25703 9.70628C0.0924566 9.87038 0 10.0929 0 10.325C0 10.5571 0.0924566 10.7796 0.25703 10.9437C0.421603 11.1078 0.644812 11.2 0.877554 11.2H3.13412V14.4315H0.877554C0.644812 14.4315 0.421603 14.5237 0.25703 14.6878C0.0924566 14.8519 0 15.0744 0 15.3065C0 15.5386 0.0924566 15.7611 0.25703 15.9252C0.421603 16.0893 0.644812 16.1815 0.877554 16.1815H3.13412V19.414H0.877554C0.762312 19.414 0.648198 19.4366 0.541728 19.4806C0.435259 19.5246 0.338518 19.589 0.25703 19.6703C0.175541 19.7515 0.110901 19.848 0.0668 19.9542C0.0226988 20.0603 0 20.1741 0 20.289C0 20.4039 0.0226988 20.5177 0.0668 20.6238C0.110901 20.73 0.175541 20.8265 0.25703 20.9077C0.338518 20.989 0.435259 21.0534 0.541728 21.0974C0.648198 21.1414 0.762312 21.164 0.877554 21.164H3.13412V24.396H0.877554C0.644812 24.396 0.421603 24.4882 0.25703 24.6523C0.0924566 24.8164 0 25.0389 0 25.271C0 25.5031 0.0924566 25.7256 0.25703 25.8897C0.421603 26.0538 0.644812 26.146 0.877554 26.146H3.13412V29.3785H0.877554C0.644812 29.3785 0.421603 29.4707 0.25703 29.6348C0.0924566 29.7989 0 30.0214 0 30.2535C0 30.4856 0.0924566 30.7081 0.25703 30.8722C0.421603 31.0363 0.644812 31.1285 0.877554 31.1285H3.13412V34.3605H0.877554C0.644812 34.3605 0.421603 34.4527 0.25703 34.6168C0.0924566 34.7809 0 35.0034 0 35.2355C0 35.4676 0.0924566 35.6901 0.25703 35.8542C0.421603 36.0183 0.644812 36.1105 0.877554 36.1105H3.13412V39.343H0.877554C0.644812 39.343 0.421603 39.4352 0.25703 39.5993C0.0924566 39.7634 0 39.9859 0 40.218C0 40.4501 0.0924566 40.6726 0.25703 40.8367C0.421603 41.0008 0.644812 41.093 0.877554 41.093H3.13412V44.325H0.877554C0.644812 44.325 0.421603 44.4172 0.25703 44.5813C0.0924566 44.7454 0 44.9679 0 45.2C0 45.4321 0.0924566 45.6546 0.25703 45.8187C0.421603 45.9828 0.644812 46.075 0.877554 46.075H3.13412V49.125C3.13412 49.3571 3.22658 49.5796 3.39115 49.7437C3.55572 49.9078 3.77893 50 4.01167 50H43.5457C43.7016 50 43.8575 49.9922 44.0126 49.9765C45.6378 49.858 47.158 49.1314 48.2684 47.9422C49.3788 46.7531 49.9974 45.1893 50 43.5645V6.4355C49.998 4.72888 49.317 3.09276 48.1065 1.88622C46.896 0.679693 45.2548 0.00132325 43.5432 0ZM37.1215 44.2H12.0797C11.9138 43.489 11.5517 42.8384 11.0342 42.322C10.5167 41.8056 9.86459 41.444 9.15163 41.278V14.2425C9.86499 14.077 10.5176 13.7156 11.0355 13.1993C11.5535 12.6829 11.9161 12.0323 12.0822 11.321H37.0889V43.5645C37.0891 43.7767 37.1 43.9888 37.1215 44.2ZM4.88923 48.25V7.332H37.0889V9.571H11.3014C11.0686 9.571 10.8454 9.66319 10.6809 9.82728C10.5163 9.99138 10.4238 10.2139 10.4238 10.446C10.4228 11.0148 10.1957 11.5601 9.79228 11.9623C9.38888 12.3645 8.84206 12.5909 8.27157 12.592C8.03883 12.592 7.81562 12.6842 7.65105 12.8483C7.48647 13.0124 7.39402 13.2349 7.39402 13.467V42.0535C7.39402 42.2856 7.48647 42.5081 7.65105 42.6722C7.81562 42.8363 8.03883 42.9285 8.27157 42.9285C8.84206 42.9296 9.38888 43.156 9.79228 43.5582C10.1957 43.9604 10.4228 44.5057 10.4238 45.0745C10.4238 45.3066 10.5163 45.5291 10.6809 45.6932C10.8454 45.8573 11.0686 45.9495 11.3014 45.9495H37.5538C37.9058 46.8217 38.4447 47.6067 39.1329 48.2495L4.88923 48.25ZM48.0704 44.8135C47.9181 43.7244 47.3764 42.7267 46.5451 42.0042C45.7137 41.2816 44.6486 40.8828 43.5457 40.881C43.313 40.881 43.0898 40.9732 42.9252 41.1373C42.7606 41.3014 42.6682 41.5239 42.6682 41.756C42.6682 41.9881 42.7606 42.2106 42.9252 42.3747C43.0898 42.5388 43.313 42.631 43.5457 42.631C44.2684 42.6305 44.9637 42.9069 45.4878 43.403C46.0118 43.8992 46.3247 44.5772 46.3617 45.2968C46.3986 46.0165 46.1569 46.7228 45.6863 47.2697C45.2158 47.8166 44.5525 48.1624 43.8336 48.2355C43.7378 48.2415 43.643 48.25 43.5457 48.25C42.5568 48.254 41.5917 47.948 40.7867 47.3754C39.9816 46.8028 39.3774 45.9924 39.0593 45.0588C38.7412 44.1252 38.7253 43.1156 39.014 42.1725C39.3026 41.2294 39.8811 40.4006 40.6677 39.8031C41.4544 39.2056 42.4095 38.8697 43.398 38.8428C44.3865 38.8159 45.3585 39.0993 46.1767 39.6531C46.9949 40.2069 47.6179 41.003 47.9577 41.929C48.2975 42.855 48.3369 43.864 48.0704 44.8135ZM43.5457 37.1285C42.6642 37.129 41.7922 37.3101 40.9838 37.6607C40.1754 38.0113 39.4479 38.5238 38.8465 39.1665V6.4355C38.8465 5.19283 39.3416 4.00105 40.2229 3.12235C41.1042 2.24365 42.2994 1.75 43.5457 1.75C44.792 1.75 45.9873 2.24365 46.8685 3.12235C47.7498 4.00105 48.2449 5.19283 48.2449 6.4355V39.1665C47.6433 38.5234 46.9154 38.0107 46.1066 37.66C45.2977 37.3094 44.4252 37.1285 43.5432 37.1285H43.5457Z" fill="#1F56D5"/>
<path d="M27.2061 20.2523C27.1273 20.1723 27.0338 20.1089 26.9309 20.0656C26.8279 20.0223 26.7175 20 26.6061 20C26.4946 20 26.3843 20.0223 26.2813 20.0656C26.1784 20.1089 26.0848 20.1723 26.0061 20.2523L23 23.3015L19.9938 20.2523C19.8318 20.0968 19.6172 20.0102 19.3941 20.0102C19.171 20.0102 18.9564 20.0968 18.7943 20.2523L12.2487 26.8916C12.1699 26.9715 12.1073 27.0663 12.0646 27.1707C12.022 27.2751 12 27.387 12 27.5C12 27.613 12.022 27.7249 12.0646 27.8293C12.1073 27.9337 12.1699 28.0285 12.2487 28.1084L18.7943 34.7477C18.873 34.8277 18.9665 34.8911 19.0694 34.9344C19.1723 34.9777 19.2827 35 19.3941 35C19.5055 35 19.6158 34.9777 19.7187 34.9344C19.8216 34.8911 19.9151 34.8277 19.9938 34.7477L23 31.6985L26.0061 34.7477C26.0848 34.8277 26.1784 34.8911 26.2813 34.9344C26.3843 34.9777 26.4946 35 26.6061 35C26.7175 35 26.8279 34.9777 26.9309 34.9344C27.0338 34.8911 27.1273 34.8277 27.2061 34.7477L33.7517 28.1084C33.9107 27.947 34 27.7282 34 27.5C34 27.2718 33.9107 27.053 33.7517 26.8916L27.2061 20.2523ZM19.3936 32.9221L14.048 27.4985L19.3936 22.0779L21.7999 24.5187L19.4605 26.8916C19.3817 26.9715 19.3191 27.0663 19.2764 27.1707C19.2337 27.2751 19.2118 27.387 19.2118 27.5C19.2118 27.613 19.2337 27.7249 19.2764 27.8293C19.3191 27.9337 19.3817 28.0285 19.4605 28.1084L21.7999 30.4813L19.3936 32.9221ZM23 25.7354L24.7391 27.4985L23 29.2641L21.2603 27.4985L23 25.7354ZM26.6059 32.9221L24.1995 30.4813L26.5389 28.1084C26.6979 27.947 26.7872 27.7282 26.7872 27.5C26.7872 27.2718 26.6979 27.053 26.5389 26.8916L24.1995 24.5187L26.6059 22.0779L31.9519 27.4985L26.6059 32.9221Z" fill="#1F56D5"/>
</svg>
