<svg width="15" height="14" viewBox="0 0 15 14" fill="none" xmlns="http://www.w3.org/2000/svg">
<path d="M8.98634 0.756657C8.69345 0.463764 8.21857 0.463764 7.92568 0.756657C7.63279 1.04955 7.63279 1.52442 7.92568 1.81732L8.98634 0.756657ZM14.169 6.99999L14.6993 7.53032C14.84 7.38967 14.919 7.1989 14.919 6.99999C14.919 6.80107 14.84 6.61031 14.6993 6.46966L14.169 6.99999ZM7.92568 12.1827C7.63279 12.4755 7.63279 12.9504 7.92568 13.2433C8.21857 13.5362 8.69345 13.5362 8.98634 13.2433L7.92568 12.1827ZM0.855011 6.24999C0.440797 6.24999 0.105011 6.58577 0.105011 6.99999C0.105011 7.4142 0.440797 7.74999 0.855011 7.74999V6.24999ZM14.152 7.74999C14.5662 7.74999 14.902 7.4142 14.902 6.99999C14.902 6.58577 14.5662 6.24999 14.152 6.24999V7.74999ZM7.92568 1.81732L13.6387 7.53032L14.6993 6.46966L8.98634 0.756657L7.92568 1.81732ZM13.6387 6.46966L7.92568 12.1827L8.98634 13.2433L14.6993 7.53032L13.6387 6.46966ZM0.855011 7.74999H14.152V6.24999H0.855011V7.74999Z" fill="black"/>
</svg>
